<svg width="157" height="125" viewBox="0 0 157 125" fill="none" xmlns="http://www.w3.org/2000/svg">
<path d="M156.966 77.3023C155.632 104.438 119.488 125.812 76.1157 124.976C32.7429 124.141 -1.29559 101.491 0.0378784 74.3556C1.37135 47.1761 37.5153 25.846 80.8179 26.6816C124.191 27.4732 158.229 50.1228 156.966 77.3023Z" fill="#00AB91"/>
<path d="M80.8179 26.6364L76.1157 124.975C32.7429 124.14 -1.29559 101.49 0.0378784 74.3545C1.37135 47.175 37.5153 25.8008 80.8179 26.6364Z" fill="#008974"/>
<path d="M115.767 10.7167L114.715 32.0909L46.4272 30.8154L47.4799 9.44121C47.6905 4.4715 54.2876 0.557387 62.2885 0.733306L101.871 1.48089C109.802 1.61283 116.048 5.79093 115.767 10.7167Z" fill="white"/>
<path d="M80.6045 31.4751L46.4958 30.8154L47.5485 9.44121C47.7591 4.4715 54.3563 0.557387 62.3571 0.733306L82.1486 1.08508L80.9555 25.8017L80.6045 31.4751Z" fill="#8AF3FF"/>
<path d="M103.557 46.2082C121.944 52.5853 134.858 64.5037 136.191 78.6212" stroke="white" stroke-width="2" stroke-miterlimit="10"/>
</svg>
