<svg width="152" height="154" viewBox="0 0 152 154" fill="none" xmlns="http://www.w3.org/2000/svg">
<path d="M138.883 123.275C117.657 152.746 72.4181 155.332 37.835 129.052C3.25188 102.773 -7.5742 57.5808 13.648 28.1138C34.8701 -1.35324 80.1129 -3.94267 114.696 22.3365C149.279 48.6157 160.109 93.8082 138.883 123.275Z" fill="url(#paint0_radial_1_854)"/>
<path d="M138.883 123.275C117.657 152.746 72.4181 155.332 37.835 129.052C3.25188 102.773 -7.5742 57.5808 13.648 28.1138C34.8701 -1.35324 80.1129 -3.94267 114.696 22.3365C149.279 48.6157 160.109 93.8082 138.883 123.275Z" fill="url(#paint1_radial_1_854)"/>
<path opacity="0.7" d="M38.5843 53.6129L50.7177 5.31805C42.9605 6.7321 35.6541 9.48539 29.173 13.553L15.7947 105.281C18.881 110.096 22.4908 114.709 26.6069 119.022L38.5843 53.6129Z" fill="#FCFFAC"/>
<path d="M78.9344 34.2328L83.5187 33.5917L88.311 8.33476C86.2512 7.65445 84.1845 7.05606 82.1143 6.54315L78.9344 34.2328Z" fill="#FCFFAC"/>
<path opacity="0.7" d="M118.992 76.8466L111.017 143.684C114.138 142.623 117.148 141.316 120.019 139.773L129.805 36.6906C127.419 33.8518 124.829 31.1199 122.041 28.5198L118.992 76.8466Z" fill="#FCFFAC"/>
<path d="M122.663 114.032C138.487 92.0605 130.414 58.3667 104.63 38.775C78.8467 19.1834 45.1169 21.1128 29.2925 43.0846C13.4681 65.0564 21.5416 98.7502 47.325 118.342C73.1084 137.934 106.838 136.004 122.663 114.032Z" fill="#FCFFAC"/>
<path d="M123.189 111.346C139.101 89.252 130.982 55.3713 105.056 35.6709C79.129 15.9704 45.212 17.9104 29.3 40.0039C13.3879 62.0975 21.5063 95.9782 47.4329 115.679C73.3595 135.379 107.276 133.439 123.189 111.346Z" fill="#FBAA12"/>
<path opacity="0.3" d="M131.247 81.9009C130.557 89.7512 127.956 97.2417 123.292 103.721C107.379 125.815 73.4617 127.752 47.5339 108.052C31.6485 95.9808 22.4487 78.5848 21.3634 61.8406C19.6989 80.7646 29.1275 101.772 47.4507 115.699C73.3785 135.4 107.296 133.462 123.209 111.368C129.375 102.809 131.934 92.4866 131.247 81.9009Z" fill="#EA831C"/>
<path opacity="0.25" d="M25.0951 16.3739C19.148 37.2391 28.4518 62.7809 49.6254 78.8697C75.5706 98.5844 109.512 96.6432 125.436 74.535C132.437 64.8147 134.788 52.8149 133.023 40.7439C127.978 34.0049 121.847 27.7646 114.7 22.3364C85.4639 0.121261 48.6163 -1.46731 25.0951 16.3739Z" fill="#FFFFEB"/>
<path d="M29.4159 42.4038C45.3291 20.3097 79.2465 18.3721 105.174 38.0726C121.105 50.1792 130.311 67.6358 131.352 84.4262C131.078 66.9234 121.767 48.3698 105.081 35.6897C79.1528 15.9893 45.2355 17.9269 29.3223 40.0209C23.188 48.5408 20.6254 58.8096 21.2773 69.3454C21.1247 59.6501 23.7428 50.279 29.4159 42.4038Z" fill="#CF7310"/>
<defs>
<radialGradient id="paint0_radial_1_854" cx="0" cy="0" r="1" gradientUnits="userSpaceOnUse" gradientTransform="translate(76.2669 75.6941) rotate(37.2296) scale(78.6441 65.7357)">
<stop stop-color="#FBC01E"/>
<stop offset="0.4609" stop-color="#FDC822"/>
<stop offset="1" stop-color="#FCE13C"/>
</radialGradient>
<radialGradient id="paint1_radial_1_854" cx="0" cy="0" r="1" gradientUnits="userSpaceOnUse" gradientTransform="translate(76.2669 75.6941) rotate(37.2296) scale(78.6441 65.7357)">
<stop stop-color="#FBC01E"/>
<stop offset="0.4609" stop-color="#FDC822"/>
<stop offset="1" stop-color="#FCE13C"/>
</radialGradient>
</defs>
</svg>
