<svg width="157" height="158" viewBox="0 0 157 158" fill="none" xmlns="http://www.w3.org/2000/svg">
<path d="M78.0336 151.263C118.678 151.263 151.628 118.392 151.628 77.8428C151.628 37.294 118.678 4.42267 78.0336 4.42267C37.3887 4.42267 4.43945 37.294 4.43945 77.8428C4.43945 118.392 37.3887 151.263 78.0336 151.263Z" fill="url(#paint0_linear_1_839)"/>
<path opacity="0.7" d="M37.33 83.6704L20.1278 32.5262C15.0078 39.0278 10.9663 46.411 8.2666 54.4099L48.288 145.018C53.2651 147.215 58.5346 148.878 64.0185 149.931L37.33 83.6704Z" fill="#FCFFAC"/>
<path d="M57.3782 39.1703L60.5067 35.5014L50.3284 9.80286C48.3889 10.5904 46.4949 11.4558 44.6431 12.3957L57.3782 39.1703Z" fill="#FCFFAC"/>
<path opacity="0.7" d="M111.116 49.9956L141.622 114.82C143.408 111.767 144.984 108.572 146.323 105.259L97.3637 6.98006C93.998 6.06932 90.5348 5.3887 86.9969 4.96088L111.116 49.9956Z" fill="#FCFFAC"/>
<path d="M118.2 119.292C139.629 97.9142 139.629 63.2539 118.2 41.8761C96.7718 20.4983 62.0294 20.4983 40.6009 41.8761C19.1725 63.2539 19.1725 97.9142 40.6009 119.292C62.0294 140.67 96.7718 140.67 118.2 119.292Z" fill="#FCFFAC"/>
<path d="M117.04 116.763C138.586 95.2675 138.586 60.4164 117.04 38.9209C95.4934 17.4254 60.5598 17.4254 39.0133 38.9209C17.4669 60.4164 17.4668 95.2675 39.0133 116.763C60.5597 138.259 95.4934 138.259 117.04 116.763Z" fill="#FBAA12"/>
<path opacity="0.3" d="M123.192 46.21C126.96 53.658 129.085 62.075 129.085 70.988C129.085 101.386 104.381 126.031 73.9112 126.031C55.2405 126.031 38.7369 116.781 28.7534 102.621C37.8402 120.573 56.4978 132.886 78.0338 132.886C108.504 132.886 133.207 108.241 133.207 77.8429C133.207 66.068 129.501 55.1586 123.192 46.21Z" fill="#EA831C"/>
<path opacity="0.25" d="M6.71045 59.6701C13.6076 82.2442 34.6465 98.67 59.532 98.67C90.0248 98.67 114.745 74.0087 114.745 43.5879C114.745 30.212 109.966 17.951 102.019 8.40928C94.5016 5.8229 86.4317 4.41949 78.0304 4.41949C43.6748 4.42274 14.8161 27.9108 6.71045 59.6701Z" fill="#FFFFEB"/>
<path d="M24.2341 79.8978C24.2341 49.4998 48.9377 24.8546 79.4078 24.8546C98.1303 24.8546 114.676 34.1598 124.65 48.3848C114.865 33.0059 97.643 22.7998 78.0335 22.7998C47.5634 22.7998 22.8599 47.4449 22.8599 77.843C22.8599 89.5627 26.531 100.43 32.7913 109.356C27.3724 100.838 24.2341 90.7328 24.2341 79.8978Z" fill="#CF7310"/>
<defs>
<linearGradient id="paint0_linear_1_839" x1="25.9943" y1="129.757" x2="129.824" y2="25.6812" gradientUnits="userSpaceOnUse">
<stop stop-color="#FBC01E"/>
<stop offset="0.4609" stop-color="#FDC822"/>
<stop offset="1" stop-color="#FCE13C"/>
</linearGradient>
</defs>
</svg>
